<svg width="20" height="20" viewBox="0 0 20 20" fill="none" xmlns="http://www.w3.org/2000/svg">
<path d="M16.7554 4.27432H12.636V0.291458H13.2388V3.69717H16.7554V4.27432Z" fill="#1674B2"/>
<path d="M17.0567 20H0.975098V0H13.2269L17.0567 3.86857V10H16.4539V4.10286L12.9728 0.582857H1.57794V19.4171H16.4539V18.0457H17.0567V20Z" fill="#1674B2"/>
<path d="M11.6492 4.21713H3.49316V4.79999H11.6492V4.21713Z" fill="#1674B2"/>
<path d="M8.86527 5.93146H3.49292V6.51432H8.86527V5.93146Z" fill="#1674B2"/>
<path d="M14.539 7.63995H3.49292V8.22281H14.539V7.63995Z" fill="#1674B2"/>
<path d="M14.539 9.35431H3.49292V9.93717H14.539V9.35431Z" fill="#1674B2"/>
<path d="M16.7554 18.76L13.5166 14.2285H14.8996V9.70854H18.6171V14.2285H20.0001L16.7554 18.76ZM14.6632 14.8114L16.7613 17.7428L18.8594 14.8114H18.0202V10.2914H15.5083V14.8114H14.6632Z" fill="#1674B2"/>
<path d="M5.19503 14.4571C5.04728 14.4571 4.92907 14.5086 4.84633 14.6114C4.76359 14.7143 4.71631 14.8514 4.71631 15.0114V15.3657C4.71631 15.5314 4.75768 15.6629 4.84633 15.7657C4.92907 15.8686 5.04728 15.92 5.19503 15.92C5.3487 15.92 5.47281 15.8686 5.56146 15.7657C5.65012 15.6629 5.6974 15.5257 5.6974 15.36V15.0057C5.6974 14.8457 5.65012 14.7086 5.56146 14.6057C5.47281 14.5086 5.3487 14.4571 5.19503 14.4571Z" fill="#1674B2"/>
<path d="M3.13248 14.48H2.80151V15.9029H3.13248C3.29206 15.9029 3.42208 15.8515 3.51665 15.7429C3.61121 15.64 3.65849 15.5029 3.65849 15.3372V15.04C3.65849 14.8743 3.61121 14.7429 3.51665 14.6343C3.42208 14.5315 3.29797 14.48 3.13248 14.48Z" fill="#1674B2"/>
<path d="M11.0757 12.8914H0V17.4914H11.0757L8.71751 15.1942L11.0757 12.8914ZM3.99528 15.3371C3.99528 15.5828 3.91254 15.7771 3.75296 15.9314C3.59339 16.0857 3.38653 16.16 3.13239 16.16H2.47045V14.2171H3.13239C3.38653 14.2171 3.59339 14.2914 3.75296 14.4457C3.91254 14.6 3.99528 14.8 3.99528 15.04V15.3371ZM6.02838 15.3657C6.02838 15.6057 5.95155 15.8 5.79788 15.9542C5.64422 16.1085 5.44327 16.1885 5.19505 16.1885C4.95273 16.1885 4.75769 16.1085 4.60994 15.9542C4.45627 15.8 4.38535 15.6 4.38535 15.3657V15.0171C4.38535 14.7828 4.46218 14.5828 4.60994 14.4285C4.75769 14.2742 4.95864 14.1942 5.19505 14.1942C5.44327 14.1942 5.63831 14.2742 5.79788 14.4285C5.95155 14.5828 6.02838 14.7828 6.02838 15.0171V15.3657ZM6.86763 15.7771C6.95037 15.88 7.05675 15.9314 7.1986 15.9314C7.33453 15.9314 7.44091 15.8971 7.51184 15.8285C7.58276 15.76 7.61822 15.6571 7.61822 15.5257H7.94328V15.5314C7.94919 15.7257 7.87827 15.8857 7.74824 16.0057C7.61231 16.1257 7.42909 16.1885 7.1986 16.1885C6.96219 16.1885 6.77306 16.1142 6.63122 15.96C6.48346 15.8057 6.41254 15.6114 6.41254 15.3771V15.0057C6.41254 14.7714 6.48346 14.5714 6.62531 14.4228C6.76715 14.2685 6.95628 14.1942 7.18678 14.1942C7.42318 14.1942 7.61231 14.2514 7.74824 14.3714C7.88418 14.4857 7.94919 14.6457 7.94919 14.8514V14.8571H7.62413C7.62413 14.7257 7.58867 14.6285 7.51775 14.56C7.44682 14.4914 7.34044 14.4571 7.1986 14.4571C7.06266 14.4571 6.95628 14.5085 6.87354 14.6114C6.7967 14.7142 6.75533 14.8457 6.75533 15.0057V15.3771C6.74351 15.5371 6.78488 15.6685 6.86763 15.7771Z" fill="#1674B2"/>
</svg>
