<svg width="50" height="50" viewBox="0 0 50 50" fill="none" xmlns="http://www.w3.org/2000/svg">
<path d="M40.9473 11.0254H31.2207V1.29883H32.6367V9.60937H40.9473V11.0254Z" fill="#E10007"/>
<path d="M41.6602 49.4141H3.70117V0.585938H32.6172L41.6602 10.0293V25H40.2441V10.6055L32.0117 2.00195H5.11719V47.998H40.2441V44.6387H41.6602V49.4141Z" fill="#E10007"/>
<path d="M28.8867 10.8789H9.63867V12.2949H28.8867V10.8789Z" fill="#E10007"/>
<path d="M22.3242 15.0586H9.63867V16.4746H22.3242V15.0586Z" fill="#E10007"/>
<path d="M35.7129 19.248H9.63867V20.6641H35.7129V19.248Z" fill="#E10007"/>
<path d="M35.7129 23.4277H9.63867V24.8438H35.7129V23.4277Z" fill="#E10007"/>
<path d="M40.9473 46.3867L33.3008 35.3223H36.5723V24.2871H45.3418V35.3223H48.6133L40.9473 46.3867ZM36.0059 36.7383L40.957 43.8965L45.9082 36.7383H43.9258V25.7031H37.9883V36.7383H36.0059Z" fill="#E10007"/>
<path d="M9.04297 35.8887H7.98828V37.6172H9.04297C9.3457 37.6172 9.57031 37.5391 9.72656 37.373C9.88281 37.2168 9.95117 37.0117 9.95117 36.7578C9.95117 36.5137 9.87305 36.2988 9.72656 36.1328C9.57031 35.9668 9.3457 35.8887 9.04297 35.8887Z" fill="#E10007"/>
<path d="M13.3594 35.8887H12.5586V39.4629H13.3594C13.75 39.4629 14.0625 39.3262 14.2871 39.0625C14.5215 38.7988 14.6289 38.457 14.6289 38.0371V37.2852C14.6289 36.875 14.5117 36.5332 14.2871 36.2695C14.0625 36.0156 13.75 35.8887 13.3594 35.8887Z" fill="#E10007"/>
<path d="M27.5391 32.0605H1.39648V43.291H27.5391L21.9824 37.6758L27.5391 32.0605ZM10.3027 37.8516C10 38.125 9.58008 38.2617 9.0332 38.2617H7.98828V40.1172H7.17773V35.2344H9.05273C9.58984 35.2344 10.0098 35.3711 10.3223 35.6543C10.625 35.9375 10.7812 36.2988 10.7812 36.748C10.7617 37.207 10.6152 37.5684 10.3027 37.8516ZM15.459 38.0469C15.459 38.6621 15.2637 39.1504 14.873 39.541C14.4824 39.9219 13.9844 40.1172 13.3594 40.1172H11.748V35.2344H13.3594C13.9746 35.2344 14.4824 35.4297 14.873 35.8105C15.2637 36.2012 15.459 36.6992 15.459 37.3047V38.0469ZM19.6777 35.8887H17.3633V37.3828H19.3359V38.0371H17.3633V40.1172H16.5527V35.2344H19.6777V35.8887Z" fill="#E10007"/>
</svg>
