<svg width="20" height="20" viewBox="0 0 20 20" fill="none" xmlns="http://www.w3.org/2000/svg">
<path d="M16.7553 4.27424H12.6359V0.291382H13.2388V3.69709H16.7553V4.27424Z" fill="#F77635"/>
<path d="M17.0567 20H0.975189V0H13.227L17.0567 3.86857V10H16.4539V4.10286L12.9728 0.582857H1.57803V19.4171H16.4539V18.0457H17.0567V20Z" fill="#F77635"/>
<path d="M11.6489 4.2171H3.49292V4.79996H11.6489V4.2171Z" fill="#F77635"/>
<path d="M8.86526 5.93146H3.49292V6.51431H8.86526V5.93146Z" fill="#F77635"/>
<path d="M14.539 7.63995H3.49292V8.22281H14.539V7.63995Z" fill="#F77635"/>
<path d="M14.539 9.35431H3.49292V9.93717H14.539V9.35431Z" fill="#F77635"/>
<path d="M16.7553 18.76L13.5165 14.2286H14.8995V9.70862H18.617V14.2286H20L16.7553 18.76ZM14.6631 14.8115L16.7612 17.7429L18.8593 14.8115H18.0201V10.2915H15.5083V14.8115H14.6631Z" fill="#F77635"/>
<path d="M11.0756 12.8914H0V17.4914H11.0756L8.71749 15.1942L11.0756 12.8914ZM3.82979 15.2628C3.69976 15.3771 3.52246 15.4342 3.29196 15.4342H2.84279V16.1942H2.5V14.1942H3.29196C3.52246 14.1942 3.69976 14.2514 3.82979 14.3656C3.95981 14.4799 4.02482 14.6285 4.02482 14.8171C4.01891 14.9999 3.9539 15.1485 3.82979 15.2628ZM5.76832 15.2628C5.63829 15.3771 5.46099 15.4342 5.23049 15.4342H4.78132V16.1942H4.43853V14.1942H5.23049C5.46099 14.1942 5.63829 14.2514 5.76832 14.3656C5.89834 14.4799 5.96335 14.6285 5.96335 14.8171C5.96335 14.9999 5.89834 15.1485 5.76832 15.2628ZM7.82506 14.4571H7.18676V16.1885H6.84397V14.4571H6.21749V14.1885H7.83097V14.4571H7.82506Z" fill="#F77635"/>
<path d="M5.23048 14.4572H4.78131V15.1658H5.23048C5.36051 15.1658 5.45507 15.1315 5.52008 15.0686C5.58509 15.0001 5.61465 14.9201 5.61465 14.8172C5.61465 14.7144 5.58509 14.6286 5.52008 14.5658C5.45507 14.4915 5.36051 14.4572 5.23048 14.4572Z" fill="#F77635"/>
<path d="M3.29198 14.4572H2.8428V15.1658H3.29198C3.422 15.1658 3.51656 15.1315 3.58157 15.0686C3.64659 15.0001 3.67614 14.9201 3.67614 14.8172C3.67614 14.7144 3.64659 14.6286 3.58157 14.5658C3.51656 14.4915 3.41609 14.4572 3.29198 14.4572Z" fill="#F77635"/>
</svg>
